{
    "asset" : {
        "generator" : "Khronos glTF Blender I/O v1.0.5",
        "version" : "2.0"
    },
    "scene" : 0,
    "scenes" : [
        {
            "name" : "Scene",
            "nodes" : [
                0,
                1,
                2,
                3,
                4
            ]
        }
    ],
    "nodes" : [
        {
            "name" : "Lamp.002",
            "rotation" : [
                -0.07396262884140015,
                -0.7948179841041565,
                -0.23344004154205322,
                -0.5552473664283752
            ],
            "translation" : [
                -9.849267959594727,
                -1.941870093345642,
                -2.5907483100891113
            ]
        },
        {
            "name" : "Lamp.001",
            "rotation" : [
                -0.07396262884140015,
                -0.7948179841041565,
                -0.23344004154205322,
                -0.5552473664283752
            ],
            "translation" : [
                8.64761734008789,
                0.47787797451019287,
                1.164002537727356
            ]
        },
        {
            "mesh" : 0,
            "name" : "Plane",
            "rotation" : [
                -0.3204050064086914,
                0.04817593842744827,
                -0.8684860467910767,
                0.3751688599586487
            ],
            "scale" : [
                1.5897793769836426,
                0.6299121379852295,
                1.5897793769836426
            ],
            "translation" : [
                0.8235607147216797,
                6.732204437255859,
                -2.1100754737854004
            ]
        },
        {
            "name" : "Lamp",
            "rotation" : [
                0.16907575726509094,
                0.7558803558349609,
                -0.27217137813568115,
                0.570947527885437
            ],
            "translation" : [
                4.076245307922363,
                5.903861999511719,
                -3.477616310119629
            ]
        },
        {
            "name" : "Camera",
            "rotation" : [
                0.48170700669288635,
                0.3342514932155609,
                -0.21292176842689514,
                0.7816000580787659
            ],
            "translation" : [
                7.481131553649902,
                5.34366512298584,
                6.5076398849487305
            ]
        }
    ],
    "materials" : [
        {
            "doubleSided" : true,
            "name" : "Espada",
            "pbrMetallicRoughness" : {
                "baseColorTexture" : {
                    "index" : 0,
                    "texCoord" : 0
                },
                "metallicFactor" : 0,
                "roughnessFactor" : 0.5
            }
        }
    ],
    "meshes" : [
        {
            "name" : "Plane.001",
            "primitives" : [
                {
                    "attributes" : {
                        "POSITION" : 0,
                        "NORMAL" : 1,
                        "TEXCOORD_0" : 2
                    },
                    "indices" : 3,
                    "material" : 0
                }
            ]
        }
    ],
    "textures" : [
        {
            "source" : 0
        }
    ],
    "images" : [
        {
            "bufferView" : 4,
            "mimeType" : "image/png",
            "name" : "Espada"
        }
    ],
    "accessors" : [
        {
            "bufferView" : 0,
            "componentType" : 5126,
            "count" : 550,
            "max" : [
                4.693599700927734,
                0.7755719423294067,
                0.4107097387313843
            ],
            "min" : [
                -4.417477607727051,
                -1.3070842027664185,
                -0.5238471031188965
            ],
            "type" : "VEC3"
        },
        {
            "bufferView" : 1,
            "componentType" : 5126,
            "count" : 550,
            "type" : "VEC3"
        },
        {
            "bufferView" : 2,
            "componentType" : 5126,
            "count" : 550,
            "type" : "VEC2"
        },
        {
            "bufferView" : 3,
            "componentType" : 5123,
            "count" : 822,
            "type" : "SCALAR"
        }
    ],
    "bufferViews" : [
        {
            "buffer" : 0,
            "byteLength" : 6600,
            "byteOffset" : 0
        },
        {
            "buffer" : 0,
            "byteLength" : 6600,
            "byteOffset" : 6600
        },
        {
            "buffer" : 0,
            "byteLength" : 4400,
            "byteOffset" : 13200
        },
        {
            "buffer" : 0,
            "byteLength" : 1644,
            "byteOffset" : 17600
        },
        {
            "buffer" : 0,
            "byteLength" : 362794,
            "byteOffset" : 19244
        }
    ],
    "buffers" : [
        {
            "byteLength" : 382040,
            "uri" : "data:application/octet-stream;base64,"
        }
    ]
}
