{
    "asset" : {
        "generator" : "Khronos glTF Blender I/O v1.0.5",
        "version" : "2.0"
    },
    "scene" : 0,
    "scenes" : [
        {
            "name" : "Scene",
            "nodes" : [
                0,
                1,
                2
            ]
        }
    ],
    "nodes" : [
        {
            "mesh" : 0,
            "name" : "Cylinder.002",
            "scale" : [
                2.024043321609497,
                0.31304478645324707,
                2.024043321609497
            ],
            "translation" : [
                -3.3753867149353027,
                -3.9088010787963867,
                -3.6371164321899414
            ]
        },
        {
            "mesh" : 1,
            "name" : "Cylinder",
            "translation" : [
                -3.247025728225708,
                -1.2718822956085205,
                -3.2321085929870605
            ]
        },
        {
            "mesh" : 2,
            "name" : "Cylinder.001",
            "scale" : [
                0.4519096910953522,
                0.4519096910953522,
                0.4519096910953522
            ],
            "translation" : [
                -3.3117032051086426,
                -0.04635763168334961,
                -1.6761529445648193
            ]
        }
    ],
    "materials" : [
        {
            "doubleSided" : true,
            "name" : "Ojos",
            "pbrMetallicRoughness" : {
                "baseColorFactor" : [
                    0,
                    0,
                    0,
                    1
                ],
                "metallicFactor" : 0,
                "roughnessFactor" : 0.5
            }
        },
        {
            "doubleSided" : true,
            "name" : "Cuerpo",
            "pbrMetallicRoughness" : {
                "baseColorFactor" : [
                    0.4868963360786438,
                    0.3255152404308319,
                    0.22342495620250702,
                    1
                ],
                "metallicFactor" : 0,
                "roughnessFactor" : 0.5
            }
        },
        {
            "doubleSided" : true,
            "name" : "Pant",
            "pbrMetallicRoughness" : {
                "baseColorFactor" : [
                    0.09083767235279083,
                    0.06704949587583542,
                    0.044501014053821564,
                    1
                ],
                "metallicFactor" : 0,
                "roughnessFactor" : 0.5
            }
        },
        {
            "doubleSided" : true,
            "name" : "Patas",
            "pbrMetallicRoughness" : {
                "baseColorFactor" : [
                    0.21403473615646362,
                    0.21403473615646362,
                    0.21403473615646362,
                    1
                ],
                "metallicFactor" : 0,
                "roughnessFactor" : 0.5
            }
        },
        {
            "doubleSided" : true,
            "name" : "Material.001",
            "pbrMetallicRoughness" : {
                "baseColorFactor" : [
                    0.800000011920929,
                    0.800000011920929,
                    0.800000011920929,
                    1
                ],
                "metallicFactor" : 0,
                "roughnessFactor" : 0.5
            }
        },
        {
            "doubleSided" : true,
            "name" : "Nariz",
            "pbrMetallicRoughness" : {
                "baseColorFactor" : [
                    0.6266583204269409,
                    0.6266583204269409,
                    0.6266583204269409,
                    1
                ],
                "metallicFactor" : 0,
                "roughnessFactor" : 0.5
            }
        },
        {
            "doubleSided" : true,
            "name" : "NarizF",
            "pbrMetallicRoughness" : {
                "baseColorFactor" : [
                    0.3988821506500244,
                    0.38703879714012146,
                    0.4109345078468323,
                    1
                ],
                "metallicFactor" : 0,
                "roughnessFactor" : 0.5
            }
        }
    ],
    "meshes" : [
        {
            "name" : "Cylinder.001",
            "primitives" : [
                {
                    "attributes" : {
                        "POSITION" : 0,
                        "NORMAL" : 1,
                        "TEXCOORD_0" : 2
                    },
                    "indices" : 3,
                    "material" : 0
                }
            ]
        },
        {
            "name" : "Cylinder",
            "primitives" : [
                {
                    "attributes" : {
                        "POSITION" : 4,
                        "NORMAL" : 5,
                        "JOINTS_0" : 6,
                        "WEIGHTS_0" : 7
                    },
                    "indices" : 8,
                    "material" : 1
                },
                {
                    "attributes" : {
                        "POSITION" : 9,
                        "NORMAL" : 10,
                        "JOINTS_0" : 11,
                        "WEIGHTS_0" : 12
                    },
                    "indices" : 13,
                    "material" : 2
                }
            ]
        },
        {
            "name" : "Cylinder.003",
            "primitives" : [
                {
                    "attributes" : {
                        "POSITION" : 14,
                        "NORMAL" : 15,
                        "JOINTS_0" : 16,
                        "WEIGHTS_0" : 17
                    },
                    "indices" : 18,
                    "material" : 0
                },
                {
                    "attributes" : {
                        "POSITION" : 19,
                        "NORMAL" : 20,
                        "JOINTS_0" : 21,
                        "WEIGHTS_0" : 22
                    },
                    "indices" : 13,
                    "material" : 3
                },
                {
                    "attributes" : {
                        "POSITION" : 23,
                        "NORMAL" : 24,
                        "JOINTS_0" : 25,
                        "WEIGHTS_0" : 26
                    },
                    "indices" : 27,
                    "material" : 4
                },
                {
                    "attributes" : {
                        "POSITION" : 28,
                        "NORMAL" : 29,
                        "JOINTS_0" : 30,
                        "WEIGHTS_0" : 31
                    },
                    "indices" : 32,
                    "material" : 5
                },
                {
                    "attributes" : {
                        "POSITION" : 33,
                        "NORMAL" : 34,
                        "JOINTS_0" : 35,
                        "WEIGHTS_0" : 36
                    },
                    "indices" : 37,
                    "material" : 6
                }
            ]
        }
    ],
    "accessors" : [
        {
            "bufferView" : 0,
            "componentType" : 5126,
            "count" : 192,
            "max" : [
                1,
                1,
                1
            ],
            "min" : [
                -1,
                -1,
                -1
            ],
            "type" : "VEC3"
        },
        {
            "bufferView" : 1,
            "componentType" : 5126,
            "count" : 192,
            "type" : "VEC3"
        },
        {
            "bufferView" : 2,
            "componentType" : 5126,
            "count" : 192,
            "type" : "VEC2"
        },
        {
            "bufferView" : 3,
            "componentType" : 5123,
            "count" : 372,
            "type" : "SCALAR"
        },
        {
            "bufferView" : 4,
            "componentType" : 5126,
            "count" : 4026,
            "max" : [
                0.9766042828559875,
                4.854305744171143,
                1.445360541343689
            ],
            "min" : [
                -2.251166582107544,
                0.41506415605545044,
                -1.054937720298767
            ],
            "type" : "VEC3"
        },
        {
            "bufferView" : 5,
            "componentType" : 5126,
            "count" : 4026,
            "type" : "VEC3"
        },
        {
            "bufferView" : 6,
            "componentType" : 5123,
            "count" : 4026,
            "type" : "VEC4"
        },
        {
            "bufferView" : 7,
            "componentType" : 5126,
            "count" : 4026,
            "type" : "VEC4"
        },
        {
            "bufferView" : 8,
            "componentType" : 5123,
            "count" : 4026,
            "type" : "SCALAR"
        },
        {
            "bufferView" : 9,
            "componentType" : 5126,
            "count" : 564,
            "max" : [
                0.7799919843673706,
                2.9445300102233887,
                0.5333079099655151
            ],
            "min" : [
                -0.9159483909606934,
                2.0632848739624023,
                -0.4331148564815521
            ],
            "type" : "VEC3"
        },
        {
            "bufferView" : 10,
            "componentType" : 5126,
            "count" : 564,
            "type" : "VEC3"
        },
        {
            "bufferView" : 11,
            "componentType" : 5123,
            "count" : 564,
            "type" : "VEC4"
        },
        {
            "bufferView" : 12,
            "componentType" : 5126,
            "count" : 564,
            "type" : "VEC4"
        },
        {
            "bufferView" : 13,
            "componentType" : 5123,
            "count" : 564,
            "type" : "SCALAR"
        },
        {
            "bufferView" : 14,
            "componentType" : 5126,
            "count" : 12,
            "max" : [
                -0.15185312926769257,
                8.296201705932617,
                1.5464391708374023
            ],
            "min" : [
                -1.1232244968414307,
                8.050482749938965,
                1.2251415252685547
            ],
            "type" : "VEC3"
        },
        {
            "bufferView" : 15,
            "componentType" : 5126,
            "count" : 12,
            "type" : "VEC3"
        },
        {
            "bufferView" : 16,
            "componentType" : 5123,
            "count" : 12,
            "type" : "VEC4"
        },
        {
            "bufferView" : 17,
            "componentType" : 5126,
            "count" : 12,
            "type" : "VEC4"
        },
        {
            "bufferView" : 18,
            "componentType" : 5123,
            "count" : 12,
            "type" : "SCALAR"
        },
        {
            "bufferView" : 19,
            "componentType" : 5126,
            "count" : 564,
            "max" : [
                1.976601481437683,
                3.475799322128296,
                5.363730430603027
            ],
            "min" : [
                -1.8996247053146362,
                -7.856451034545898,
                -5.770237922668457
            ],
            "type" : "VEC3"
        },
        {
            "bufferView" : 20,
            "componentType" : 5126,
            "count" : 564,
            "type" : "VEC3"
        },
        {
            "bufferView" : 21,
            "componentType" : 5123,
            "count" : 564,
            "type" : "VEC4"
        },
        {
            "bufferView" : 22,
            "componentType" : 5126,
            "count" : 564,
            "type" : "VEC4"
        },
        {
            "bufferView" : 23,
            "componentType" : 5126,
            "count" : 2631,
            "max" : [
                2.0856246948242188,
                8.932414054870605,
                4.853326797485352
            ],
            "min" : [
                -2.0407495498657227,
                -7.297247886657715,
                -11.58704948425293
            ],
            "type" : "VEC3"
        },
        {
            "bufferView" : 24,
            "componentType" : 5126,
            "count" : 2631,
            "type" : "VEC3"
        },
        {
            "bufferView" : 25,
            "componentType" : 5123,
            "count" : 2631,
            "type" : "VEC4"
        },
        {
            "bufferView" : 26,
            "componentType" : 5126,
            "count" : 2631,
            "type" : "VEC4"
        },
        {
            "bufferView" : 27,
            "componentType" : 5123,
            "count" : 2631,
            "type" : "SCALAR"
        },
        {
            "bufferView" : 28,
            "componentType" : 5126,
            "count" : 6,
            "max" : [
                -0.2518950402736664,
                8.057929039001465,
                2.6286516189575195
            ],
            "min" : [
                -0.9494023323059082,
                7.948997497558594,
                2.481154441833496
            ],
            "type" : "VEC3"
        },
        {
            "bufferView" : 29,
            "componentType" : 5126,
            "count" : 6,
            "type" : "VEC3"
        },
        {
            "bufferView" : 30,
            "componentType" : 5123,
            "count" : 6,
            "type" : "VEC4"
        },
        {
            "bufferView" : 31,
            "componentType" : 5126,
            "count" : 6,
            "type" : "VEC4"
        },
        {
            "bufferView" : 32,
            "componentType" : 5123,
            "count" : 6,
            "type" : "SCALAR"
        },
        {
            "bufferView" : 33,
            "componentType" : 5126,
            "count" : 111,
            "max" : [
                1.2082594633102417,
                8.161578178405762,
                3.0884838104248047
            ],
            "min" : [
                -1.2473002672195435,
                2.317260980606079,
                -3.537346601486206
            ],
            "type" : "VEC3"
        },
        {
            "bufferView" : 34,
            "componentType" : 5126,
            "count" : 111,
            "type" : "VEC3"
        },
        {
            "bufferView" : 35,
            "componentType" : 5123,
            "count" : 111,
            "type" : "VEC4"
        },
        {
            "bufferView" : 36,
            "componentType" : 5126,
            "count" : 111,
            "type" : "VEC4"
        },
        {
            "bufferView" : 37,
            "componentType" : 5123,
            "count" : 111,
            "type" : "SCALAR"
        }
    ],
    "bufferViews" : [
        {
            "buffer" : 0,
            "byteLength" : 2304,
            "byteOffset" : 0
        },
        {
            "buffer" : 0,
            "byteLength" : 2304,
            "byteOffset" : 2304
        },
        {
            "buffer" : 0,
            "byteLength" : 1536,
            "byteOffset" : 4608
        },
        {
            "buffer" : 0,
            "byteLength" : 744,
            "byteOffset" : 6144
        },
        {
            "buffer" : 0,
            "byteLength" : 48312,
            "byteOffset" : 6888
        },
        {
            "buffer" : 0,
            "byteLength" : 48312,
            "byteOffset" : 55200
        },
        {
            "buffer" : 0,
            "byteLength" : 32208,
            "byteOffset" : 103512
        },
        {
            "buffer" : 0,
            "byteLength" : 64416,
            "byteOffset" : 135720
        },
        {
            "buffer" : 0,
            "byteLength" : 8052,
            "byteOffset" : 200136
        },
        {
            "buffer" : 0,
            "byteLength" : 6768,
            "byteOffset" : 208188
        },
        {
            "buffer" : 0,
            "byteLength" : 6768,
            "byteOffset" : 214956
        },
        {
            "buffer" : 0,
            "byteLength" : 4512,
            "byteOffset" : 221724
        },
        {
            "buffer" : 0,
            "byteLength" : 9024,
            "byteOffset" : 226236
        },
        {
            "buffer" : 0,
            "byteLength" : 1128,
            "byteOffset" : 235260
        },
        {
            "buffer" : 0,
            "byteLength" : 144,
            "byteOffset" : 236388
        },
        {
            "buffer" : 0,
            "byteLength" : 144,
            "byteOffset" : 236532
        },
        {
            "buffer" : 0,
            "byteLength" : 96,
            "byteOffset" : 236676
        },
        {
            "buffer" : 0,
            "byteLength" : 192,
            "byteOffset" : 236772
        },
        {
            "buffer" : 0,
            "byteLength" : 24,
            "byteOffset" : 236964
        },
        {
            "buffer" : 0,
            "byteLength" : 6768,
            "byteOffset" : 236988
        },
        {
            "buffer" : 0,
            "byteLength" : 6768,
            "byteOffset" : 243756
        },
        {
            "buffer" : 0,
            "byteLength" : 4512,
            "byteOffset" : 250524
        },
        {
            "buffer" : 0,
            "byteLength" : 9024,
            "byteOffset" : 255036
        },
        {
            "buffer" : 0,
            "byteLength" : 31572,
            "byteOffset" : 264060
        },
        {
            "buffer" : 0,
            "byteLength" : 31572,
            "byteOffset" : 295632
        },
        {
            "buffer" : 0,
            "byteLength" : 21048,
            "byteOffset" : 327204
        },
        {
            "buffer" : 0,
            "byteLength" : 42096,
            "byteOffset" : 348252
        },
        {
            "buffer" : 0,
            "byteLength" : 5262,
            "byteOffset" : 390348
        },
        {
            "buffer" : 0,
            "byteLength" : 72,
            "byteOffset" : 395612
        },
        {
            "buffer" : 0,
            "byteLength" : 72,
            "byteOffset" : 395684
        },
        {
            "buffer" : 0,
            "byteLength" : 48,
            "byteOffset" : 395756
        },
        {
            "buffer" : 0,
            "byteLength" : 96,
            "byteOffset" : 395804
        },
        {
            "buffer" : 0,
            "byteLength" : 12,
            "byteOffset" : 395900
        },
        {
            "buffer" : 0,
            "byteLength" : 1332,
            "byteOffset" : 395912
        },
        {
            "buffer" : 0,
            "byteLength" : 1332,
            "byteOffset" : 397244
        },
        {
            "buffer" : 0,
            "byteLength" : 888,
            "byteOffset" : 398576
        },
        {
            "buffer" : 0,
            "byteLength" : 1776,
            "byteOffset" : 399464
        },
        {
            "buffer" : 0,
            "byteLength" : 222,
            "byteOffset" : 401240
        }
    ],
    "buffers" : [
        {
            "byteLength" : 401464,
            "uri" : "data:application/octet-stream;base64,"
        }
    ]
}
