{
    "asset" : {
        "generator" : "Khronos glTF Blender I/O v1.0.5",
        "version" : "2.0"
    },
    "scene" : 0,
    "scenes" : [
        {
            "name" : "Scene",
            "nodes" : [
                0
            ]
        }
    ],
    "nodes" : [
        {
            "mesh" : 0,
            "name" : "Cylinder",
            "scale" : [
                0.10456371307373047,
                0.10456371307373047,
                0.10456371307373047
            ],
            "translation" : [
                3.828855037689209,
                -0.03134889900684357,
                0.1738010197877884
            ]
        }
    ],
    "materials" : [
        {
            "doubleSided" : true,
            "name" : "Pico",
            "pbrMetallicRoughness" : {
                "baseColorFactor" : [
                    0,
                    0,
                    0,
                    1
                ],
                "metallicFactor" : 0,
                "roughnessFactor" : 0.5
            }
        },
        {
            "doubleSided" : true,
            "name" : "Cuerpo",
            "pbrMetallicRoughness" : {
                "baseColorFactor" : [
                    0.9999847412109375,
                    0.16102537512779236,
                    0.37604936957359314,
                    1
                ],
                "metallicFactor" : 0,
                "roughnessFactor" : 0.5
            }
        },
        {
            "doubleSided" : true,
            "name" : "Alas",
            "pbrMetallicRoughness" : {
                "baseColorFactor" : [
                    1,
                    0.4162498116493225,
                    0.9015335440635681,
                    1
                ],
                "metallicFactor" : 0,
                "roughnessFactor" : 0.5
            }
        },
        {
            "doubleSided" : true,
            "name" : "Patas",
            "pbrMetallicRoughness" : {
                "baseColorFactor" : [
                    0.8000000715255737,
                    0.2768701910972595,
                    0.5832923650741577,
                    1
                ],
                "metallicFactor" : 0,
                "roughnessFactor" : 0.5
            }
        },
        {
            "doubleSided" : true,
            "name" : "Cuello",
            "pbrMetallicRoughness" : {
                "baseColorFactor" : [
                    1,
                    0.302961528301239,
                    0.491339772939682,
                    1
                ],
                "metallicFactor" : 0,
                "roughnessFactor" : 0.5
            }
        }
    ],
    "meshes" : [
        {
            "name" : "Cylinder",
            "primitives" : [
                {
                    "attributes" : {
                        "POSITION" : 0,
                        "NORMAL" : 1,
                        "JOINTS_0" : 2,
                        "WEIGHTS_0" : 3
                    },
                    "indices" : 4,
                    "material" : 0
                },
                {
                    "attributes" : {
                        "POSITION" : 5,
                        "NORMAL" : 6,
                        "JOINTS_0" : 7,
                        "WEIGHTS_0" : 8
                    },
                    "indices" : 9,
                    "material" : 1
                },
                {
                    "attributes" : {
                        "POSITION" : 10,
                        "NORMAL" : 11,
                        "JOINTS_0" : 12,
                        "WEIGHTS_0" : 13
                    },
                    "indices" : 14,
                    "material" : 2
                },
                {
                    "attributes" : {
                        "POSITION" : 15,
                        "NORMAL" : 16,
                        "JOINTS_0" : 17,
                        "WEIGHTS_0" : 18
                    },
                    "indices" : 19,
                    "material" : 3
                },
                {
                    "attributes" : {
                        "POSITION" : 20,
                        "NORMAL" : 21,
                        "JOINTS_0" : 22,
                        "WEIGHTS_0" : 23
                    },
                    "indices" : 24,
                    "material" : 4
                }
            ]
        }
    ],
    "accessors" : [
        {
            "bufferView" : 0,
            "componentType" : 5126,
            "count" : 88,
            "max" : [
                1.2018132209777832,
                31.60042953491211,
                18.971797943115234
            ],
            "min" : [
                -0.638460636138916,
                26.281497955322266,
                16.227500915527344
            ],
            "type" : "VEC3"
        },
        {
            "bufferView" : 1,
            "componentType" : 5126,
            "count" : 88,
            "type" : "VEC3"
        },
        {
            "bufferView" : 2,
            "componentType" : 5123,
            "count" : 88,
            "type" : "VEC4"
        },
        {
            "bufferView" : 3,
            "componentType" : 5126,
            "count" : 88,
            "type" : "VEC4"
        },
        {
            "bufferView" : 4,
            "componentType" : 5123,
            "count" : 132,
            "type" : "SCALAR"
        },
        {
            "bufferView" : 5,
            "componentType" : 5126,
            "count" : 984,
            "max" : [
                5.2313432693481445,
                24.927038192749023,
                12.221490859985352
            ],
            "min" : [
                -17.477785110473633,
                -2.715494155883789,
                -11.140088081359863
            ],
            "type" : "VEC3"
        },
        {
            "bufferView" : 6,
            "componentType" : 5126,
            "count" : 984,
            "type" : "VEC3"
        },
        {
            "bufferView" : 7,
            "componentType" : 5123,
            "count" : 984,
            "type" : "VEC4"
        },
        {
            "bufferView" : 8,
            "componentType" : 5126,
            "count" : 984,
            "type" : "VEC4"
        },
        {
            "bufferView" : 9,
            "componentType" : 5123,
            "count" : 1452,
            "type" : "SCALAR"
        },
        {
            "bufferView" : 10,
            "componentType" : 5126,
            "count" : 134,
            "max" : [
                5.2313432693481445,
                24.16582489013672,
                4.716615676879883
            ],
            "min" : [
                -17.477785110473633,
                16.983327865600586,
                -11.140088081359863
            ],
            "type" : "VEC3"
        },
        {
            "bufferView" : 11,
            "componentType" : 5126,
            "count" : 134,
            "type" : "VEC3"
        },
        {
            "bufferView" : 12,
            "componentType" : 5123,
            "count" : 134,
            "type" : "VEC4"
        },
        {
            "bufferView" : 13,
            "componentType" : 5126,
            "count" : 134,
            "type" : "VEC4"
        },
        {
            "bufferView" : 14,
            "componentType" : 5123,
            "count" : 198,
            "type" : "SCALAR"
        },
        {
            "bufferView" : 15,
            "componentType" : 5126,
            "count" : 240,
            "max" : [
                2.610471725463867,
                13.428088188171387,
                1.879218578338623
            ],
            "min" : [
                -2.2198572158813477,
                -1.551248550415039,
                -4.072382926940918
            ],
            "type" : "VEC3"
        },
        {
            "bufferView" : 16,
            "componentType" : 5126,
            "count" : 240,
            "type" : "VEC3"
        },
        {
            "bufferView" : 17,
            "componentType" : 5123,
            "count" : 240,
            "type" : "VEC4"
        },
        {
            "bufferView" : 18,
            "componentType" : 5126,
            "count" : 240,
            "type" : "VEC4"
        },
        {
            "bufferView" : 19,
            "componentType" : 5123,
            "count" : 360,
            "type" : "SCALAR"
        },
        {
            "bufferView" : 20,
            "componentType" : 5126,
            "count" : 312,
            "max" : [
                1.5426405668258667,
                32.28742980957031,
                18.171958923339844
            ],
            "min" : [
                -1.4969100952148438,
                18.477764129638672,
                9.585020065307617
            ],
            "type" : "VEC3"
        },
        {
            "bufferView" : 21,
            "componentType" : 5126,
            "count" : 312,
            "type" : "VEC3"
        },
        {
            "bufferView" : 22,
            "componentType" : 5123,
            "count" : 312,
            "type" : "VEC4"
        },
        {
            "bufferView" : 23,
            "componentType" : 5126,
            "count" : 312,
            "type" : "VEC4"
        },
        {
            "bufferView" : 24,
            "componentType" : 5123,
            "count" : 468,
            "type" : "SCALAR"
        }
    ],
    "bufferViews" : [
        {
            "buffer" : 0,
            "byteLength" : 1056,
            "byteOffset" : 0
        },
        {
            "buffer" : 0,
            "byteLength" : 1056,
            "byteOffset" : 1056
        },
        {
            "buffer" : 0,
            "byteLength" : 704,
            "byteOffset" : 2112
        },
        {
            "buffer" : 0,
            "byteLength" : 1408,
            "byteOffset" : 2816
        },
        {
            "buffer" : 0,
            "byteLength" : 264,
            "byteOffset" : 4224
        },
        {
            "buffer" : 0,
            "byteLength" : 11808,
            "byteOffset" : 4488
        },
        {
            "buffer" : 0,
            "byteLength" : 11808,
            "byteOffset" : 16296
        },
        {
            "buffer" : 0,
            "byteLength" : 7872,
            "byteOffset" : 28104
        },
        {
            "buffer" : 0,
            "byteLength" : 15744,
            "byteOffset" : 35976
        },
        {
            "buffer" : 0,
            "byteLength" : 2904,
            "byteOffset" : 51720
        },
        {
            "buffer" : 0,
            "byteLength" : 1608,
            "byteOffset" : 54624
        },
        {
            "buffer" : 0,
            "byteLength" : 1608,
            "byteOffset" : 56232
        },
        {
            "buffer" : 0,
            "byteLength" : 1072,
            "byteOffset" : 57840
        },
        {
            "buffer" : 0,
            "byteLength" : 2144,
            "byteOffset" : 58912
        },
        {
            "buffer" : 0,
            "byteLength" : 396,
            "byteOffset" : 61056
        },
        {
            "buffer" : 0,
            "byteLength" : 2880,
            "byteOffset" : 61452
        },
        {
            "buffer" : 0,
            "byteLength" : 2880,
            "byteOffset" : 64332
        },
        {
            "buffer" : 0,
            "byteLength" : 1920,
            "byteOffset" : 67212
        },
        {
            "buffer" : 0,
            "byteLength" : 3840,
            "byteOffset" : 69132
        },
        {
            "buffer" : 0,
            "byteLength" : 720,
            "byteOffset" : 72972
        },
        {
            "buffer" : 0,
            "byteLength" : 3744,
            "byteOffset" : 73692
        },
        {
            "buffer" : 0,
            "byteLength" : 3744,
            "byteOffset" : 77436
        },
        {
            "buffer" : 0,
            "byteLength" : 2496,
            "byteOffset" : 81180
        },
        {
            "buffer" : 0,
            "byteLength" : 4992,
            "byteOffset" : 83676
        },
        {
            "buffer" : 0,
            "byteLength" : 936,
            "byteOffset" : 88668
        }
    ],
    "buffers" : [
        {
            "byteLength" : 89604,
            "uri" : "data:application/octet-stream;base64,"
        }
    ]
}
